<?xml version="1.0" standalone="no"?>
<!DOCTYPE svg PUBLIC "-//W3C//DTD SVG 20010904//EN"
 "http://www.w3.org/TR/2001/REC-SVG-20010904/DTD/svg10.dtd">
<svg version="1.0" xmlns="http://www.w3.org/2000/svg"
 width="321.000000pt" height="321.000000pt" viewBox="0 0 321.000000 321.000000"
 preserveAspectRatio="xMidYMid meet">
<metadata>
Created by potrace 1.11, written by Peter Selinger 2001-2013
</metadata>
<g transform="translate(0.000000,321.000000) scale(0.100000,-0.100000)"
fill="#000000" stroke="none">
<path d="M1745 3185 c-280 -83 -487 -223 -645 -436 -224 -302 -307 -740 -205
-1077 9 -30 19 -52 22 -49 3 3 7 39 9 79 10 231 57 438 135 590 70 136 190
280 309 368 109 81 292 163 410 185 19 3 44 8 55 10 11 2 30 4 42 4 24 1 24 2
8 116 -3 17 -7 57 -11 90 -12 109 -19 140 -34 142 -8 1 -51 -9 -95 -22z"/>
<path d="M482 2788 c-31 -51 -97 -210 -107 -258 -1 -3 -10 -41 -20 -85 -21
-86 -28 -336 -12 -425 58 -325 239 -618 504 -816 69 -52 222 -134 250 -134 7
0 -9 19 -34 42 -193 174 -325 358 -399 555 -109 289 -73 642 91 899 19 30 35
56 35 59 0 4 -167 117 -277 188 -7 4 -19 -5 -31 -25z"/>
<path d="M2127 2674 c-1 -1 -27 -4 -57 -8 -92 -10 -115 -14 -179 -31 -213 -55
-410 -160 -553 -294 -57 -53 -137 -151 -124 -151 3 0 36 20 73 44 165 106 365
185 538 213 28 4 111 7 185 7 109 -1 153 -6 231 -27 185 -48 348 -143 480
-277 l77 -78 98 85 c55 47 115 99 134 116 l34 30 -59 53 c-226 203 -493 311
-783 318 -51 1 -94 1 -95 0z"/>
<path d="M2132 2103 c250 -225 401 -470 453 -733 30 -153 5 -421 -51 -549 -43
-98 -69 -150 -96 -189 -19 -28 -27 -47 -21 -53 24 -24 279 -186 286 -182 16 9
69 128 102 226 132 397 56 809 -211 1148 -63 80 -158 173 -239 234 -58 44
-228 135 -253 135 -7 0 7 -17 30 -37z"/>
<path d="M2273 1494 c-11 -477 -234 -861 -604 -1042 -94 -45 -234 -89 -312
-97 -28 -3 -52 -7 -54 -8 -2 -2 1 -37 7 -78 5 -41 12 -94 15 -119 13 -109 17
-136 25 -144 15 -15 204 45 325 105 66 32 146 78 177 102 246 186 399 430 469
747 25 111 33 326 16 439 -9 64 -47 201 -56 201 -3 0 -7 -48 -8 -106z"/>
<path d="M270 1023 l-134 -117 60 -53 c432 -391 1046 -423 1546 -81 80 55 214
184 239 229 13 26 9 24 -53 -16 -147 -98 -364 -187 -533 -219 -122 -23 -323
-15 -445 19 -184 50 -374 164 -493 295 l-53 59 -134 -116z"/>
</g>
</svg>
